<?xml version="1.0" encoding="utf-8"?>
<svg xmlns="http://www.w3.org/2000/svg" viewBox="0 0 500 500">
  <rect x="0.179" y="266.693" id="" width="248.188" height="232.488" style="stroke: rgb(0, 0, 0);"/>
  <rect x="322.931" y="0.221" id="" width="177.293" height="166.077" style="stroke: rgb(0, 0, 0);"/>
  <rect x="0.179" y="266.693" id="" width="248.188" height="232.488" style="stroke: rgb(0, 0, 0);"/>
  <rect x="0.179" y="266.693" id="" width="248.188" height="232.488" style="stroke: rgb(0, 0, 0);"/>
  <rect x="0.179" y="266.693" id="" width="248.188" height="232.488" style="stroke: rgb(0, 0, 0);"/>
  <rect x="0.179" y="266.693" id="" width="248.188" height="232.488" style="stroke: rgb(0, 0, 0);"/>
  <rect x="0.179" y="266.693" id="" width="248.188" height="232.488" style="stroke: rgb(0, 0, 0);"/>
  <rect x="0.179" y="266.693" id="" width="248.188" height="232.488" style="stroke: rgb(0, 0, 0);"/>
  <rect x="322.931" y="0.221" id="" width="177.293" height="166.077" style="stroke: rgb(0, 0, 0);"/>
  <rect x="322.931" y="0.221" id="b" width="177.293" height="166.077" style="stroke: rgb(0, 0, 0);"/>
  <rect x="322.931" y="0.221" id="r" width="177.293" height="166.077" style="stroke: rgb(0, 0, 0);"/>
  <rect x="322.931" y="0.221" id="n" width="177.293" height="166.077" style="stroke: rgb(0, 0, 0);"/>
  <rect x="322.931" y="0.221" id="g" width="177.293" height="166.077" style="stroke: rgb(0, 0, 0);"/>
  <rect x="322.931" y="0.221" id="e" width="177.293" height="166.077" style="stroke: rgb(0, 0, 0);"/>
  <rect x="322.931" y="0.221" id="o" width="177.293" height="166.077" style="stroke: rgb(0, 0, 0);"/>
  <rect x="322.931" y="0.221" id="f" width="177.293" height="166.077" style="stroke: rgb(0, 0, 0);"/>
  <rect x="322.931" y="0.221" id="l" width="177.293" height="166.077" style="stroke: rgb(0, 0, 0);"/>
  <rect x="322.931" y="0.221" id="a" width="177.293" height="166.077" style="stroke: rgb(0, 0, 0);"/>
  <rect x="322.931" y="0.221" id="g" width="177.293" height="166.077" style="stroke: rgb(0, 0, 0);"/>
  <rect x="322.931" y="0.221" id="{" width="177.293" height="166.077" style="stroke: rgb(0, 0, 0);"/>
  <rect x="322.931" y="0.221" id="S" width="177.293" height="166.077" style="stroke: rgb(0, 0, 0);"/>
  <rect x="322.931" y="0.221" id="t" width="177.293" height="166.077" style="stroke: rgb(0, 0, 0);"/>
  <rect x="322.931" y="0.221" id="3" width="177.293" height="166.077" style="stroke: rgb(0, 0, 0);"/>
  <rect x="0.179" y="266.693" id="G" width="248.188" height="232.488" style="stroke: rgb(0, 0, 0);"/>
  <rect x="0.179" y="266.693" id="4" width="248.188" height="232.488" style="stroke: rgb(0, 0, 0);"/>
  <rect x="0.179" y="266.693" id="n" width="248.188" height="232.488" style="stroke: rgb(0, 0, 0);"/>
  <rect x="0.179" y="266.693" id="0" width="248.188" height="232.488" style="stroke: rgb(0, 0, 0);"/>
  <rect x="0.179" y="266.693" id="G" width="248.188" height="232.488" style="stroke: rgb(0, 0, 0);"/>
  <rect x="322.931" y="0.221" id="r" width="177.293" height="166.077" style="stroke: rgb(0, 0, 0);"/>
  <rect x="322.931" y="0.221" id="4" width="177.293" height="166.077" style="stroke: rgb(0, 0, 0);"/>
  <rect x="322.931" y="0.221" id="p" width="177.293" height="166.077" style="stroke: rgb(0, 0, 0);"/>
  <rect x="322.931" y="0.221" id="h" width="177.293" height="166.077" style="stroke: rgb(0, 0, 0);"/>
  <rect x="322.931" y="0.221" id="Y" width="177.293" height="166.077" style="stroke: rgb(0, 0, 0);"/>
  <rect x="322.931" y="0.221" id="_" width="177.293" height="166.077" style="stroke: rgb(0, 0, 0);"/>
  <rect x="322.931" y="0.221" id="1s_Aw3S0m3}" width="177.293" height="166.077" style="stroke: rgb(0, 0, 0);"/>
  <rect x="322.931" y="0.221" id="Y" width="177.293" height="166.077" style="stroke: rgb(0, 0, 0);"/>
  <rect x="322.931" y="0.221" id="Y" width="177.293" height="166.077" style="stroke: rgb(0, 0, 0);"/>
  <rect x="322.931" y="0.221" id="Y" width="177.293" height="166.077" style="stroke: rgb(0, 0, 0);"/>
  <rect x="322.931" y="0.221" id="Y" width="177.293" height="166.077" style="stroke: rgb(0, 0, 0);"/>
  <rect x="322.931" y="0.221" id="Y" width="177.293" height="166.077" style="stroke: rgb(0, 0, 0);"/>
  <rect x="322.931" y="0.221" id="Y" width="177.293" height="166.077" style="stroke: rgb(0, 0, 0);"/>
  <rect x="322.931" y="0.221" id="Y" width="177.293" height="166.077" style="stroke: rgb(0, 0, 0);"/>
  <rect x="322.931" y="0.221" id="Y" width="177.293" height="166.077" style="stroke: rgb(0, 0, 0);"/>
  <rect x="322.931" y="0.221" id="Y" width="177.293" height="166.077" style="stroke: rgb(0, 0, 0);"/>
  <rect x="322.931" y="0.221" id="Y" width="177.293" height="166.077" style="stroke: rgb(0, 0, 0);"/>
  <rect x="322.931" y="0.221" id="Y" width="177.293" height="166.077" style="stroke: rgb(0, 0, 0);"/>
</svg>
